# xmcd CD database file
#
# Track frame offsets:
#	150
#	2670
#	19594
#	21037
#	32951
#	38812
#	40186
#	50827
#	64577
#	70839
#	72507
#	85227
#	107715
#	117835
#	119105
#	126380
#	129233
#	140403
#	149839
#	150984
#	157123
#	174850
#	176994
#	178578
#	195845
#
# Disc length: 2760 seconds
#
# Revision: 2
# Processed by: cddbd v1.5PL3 Copyright (c) Steve Scherf et al.
# Submitted via: CDex 1.50Beta7
#
DISCID=640ac619
DTITLE=House Of 1000 Corpses - House Of 1000 Corpses
DYEAR=2003
DGENRE=Soundtrack
TTITLE0=Howdy Folks
TTITLE1=House Of 1000 Corpses - Rob Zombie
TTITLE2=Saddle Up The Mule
TTITLE3=Everybody Scream - Rob Zombie
TTITLE4=Stuck In The Mud
TTITLE5=Holy Miss Moley
TTITLE6=Who's Gonna Mow Your Grass? - Buck Owens
TTITLE7=Run, Rabbit, Run - Rob Zombie
TTITLE8=Into The Pit
TTITLE9=Something For You Men
TTITLE10=I Wanna Be Loved By You - Helen Kane
TTITLE11=Pussy Liquor - Rob Zombie
TTITLE12=Scarecrow Attack
TTITLE13=My Baby Boy
TTITLE14=Now I Wanna Sniff Some Glue - Ramones
TTITLE15=Investigation And The Smokehouse
TTITLE16=The Bigger The Cushion
TTITLE17=I Remember You - Slim Whitman
TTITLE18=Drive Out the Rabbit
TTITLE19=Mary's Escape
TTITLE20=Little Piggy - Rob Zombie
TTITLE21=Ain't The Only Thing Tasty
TTITLE22=Dr. Satan
TTITLE23=Brick House 2003 - Rob Zombie Featuring Lionel Richie and Trina
TTITLE24=To The House
EXTD=YEAR: 2003
EXTT0=
EXTT1=
EXTT2=
EXTT3=
EXTT4=
EXTT5=
EXTT6=
EXTT7=
EXTT8=
EXTT9=
EXTT10=
EXTT11=
EXTT12=
EXTT13=
EXTT14=
EXTT15=
EXTT16=
EXTT17=
EXTT18=
EXTT19=
EXTT20=
EXTT21=
EXTT22=
EXTT23=
EXTT24=
PLAYORDER=
